<svg xmlns="http://www.w3.org/2000/svg" viewBox="0 0 120 30" role="img" style="width: auto; height: 100%;"><title>Formidable</title><path d="M15.185,13.71h5.26v2.88h-5.23v5.3h-3.18V7.72h9.13v2.99h-5.98Zm16.22,3.2a5.27,5.27,0,1,1-5.28-5.26q.142,0,.284,0A5.13,5.13,0,0,1,31.4,16.91Zm-3.04,0a2.25,2.25,0,1,0-4.48,0,2.25,2.25,0,0,0,2.24,2.48,2.23,2.23,0,0,0,2.24-2.48Zm6.95-3.62V12h-2.94v9.93h3V17.55c0-2,1.1-2.7,2.32-2.7a4.12,4.12,0,0,1,1,.1V12a3,3,0,0,0-.8-.1A2.81,2.81,0,0,0,35.315,13.29Zm16.532-1.631a3.478,3.478,0,0,0-.542-.009,3.41,3.41,0,0,0-3.08,1.56,3.07,3.07,0,0,0-2.94-1.56,3.46,3.46,0,0,0-2.86,1.44V12h-2.9v9.93h3V16.17a1.61,1.61,0,0,1,1.5-1.717q.072,0,.144,0a1.51,1.51,0,0,1,1.6,1.68v5.76h3V16.15a1.61,1.61,0,0,1,1.517-1.7q.072,0,.143,0A1.51,1.51,0,0,1,52,16.13v5.76h2.98V15.45A3.48,3.48,0,0,0,51.847,11.659ZM56.555,21.88h3.04V11.95h-3.04Zm1.52-14.74h-.02a1.779,1.779,0,1,0,.02,0Zm12.95,13.04c0,.9.08,1.56.08,1.78h-2.92a6.9,6.9,0,0,1-.08-1,3.21,3.21,0,0,1-2.66,1.18q-.155,0-.309-.009a4.92,4.92,0,0,1-4.611-5.211q-.011-.155-.011-.311a4.85,4.85,0,0,1,4.831-4.869c1.68,0,2.44.62,2.68,1V7.42h3Zm-2.96-3.27a2.25,2.25,0,1,0-4.48,0,2.24,2.24,0,0,0,2.24,2.51v-.03a2.24,2.24,0,0,0,2.24-2.48ZM81,20.32a9.754,9.754,0,0,0,.12,1.54h-2.74a4.77,4.77,0,0,1-.1-1.12,3.48,3.48,0,0,1-6.24-1.62,3.05,3.05,0,0,1,2.94-3l2.34-.36h.041a.68.68,0,0,0,.679-.681q-.006-.055-.016-.11A1.23,1.23,0,0,0,76.585,14a1.6,1.6,0,0,0-1.68,1.49l-2.64-.54c.12-1.42,1.44-3.3,4.36-3.3,3.22,0,4.4,1.84,4.4,3.84H81Zm-2.98-2.33v-.4l-1.88.3h-.02a1.1,1.1,0,0,0-1.1,1.1,1,1,0,0,0,1.18,1,1.71,1.71,0,0,0,1.82-2Zm15.04-1.1c0,3.04-1.96,5.22-4.74,5.22a3.2,3.2,0,0,1-2.8-1.34v1.12h-2.94V7.42h3v5.47a3.57,3.57,0,0,1,2.86-1.18C91.325,11.71,93.065,13.85,93.065,16.89Zm-3.04.02a2.26,2.26,0,1,0-4.5,0,2.26,2.26,0,0,0,2.26,2.48,2.23,2.23,0,0,0,2.24-2.48Zm4.01,4.98h3.04V7.42h-3.04Zm13.87-4.23h-6.92a2.15,2.15,0,0,0,2.26,1.92,1.92,1.92,0,0,0,2-1.3l2.54.72a4.46,4.46,0,0,1-4.64,3.19q-.184,0-.367,0a5.06,5.06,0,0,1-4.813-5.3q-.006-.123-.006-.246a5,5,0,0,1,5.006-4.994c3.1,0,5,1.9,5,5.1A6.108,6.108,0,0,1,107.9,17.66Zm-2.86-1.91q0-.068-.012-.136a1.78,1.78,0,0,0-1.988-1.544,1.89,1.89,0,0,0-2,1.68Z"/></svg>
