<svg version="1.0" xmlns="http://www.w3.org/2000/svg"
 width="343.000000pt" height="343.000000pt" viewBox="0 0 343.000000 343.000000"
 preserveAspectRatio="xMidYMid meet">
<metadata>
Created by potrace 1.11, written by Peter Selinger 2001-2013
</metadata>
<g transform="translate(0.000000,343.000000) scale(0.100000,-0.100000)"
fill="#000000" stroke="none">
<path d="M76 2810 c-22 -10 -43 -17 -49 -13 -6 3 -7 1 -3 -5 4 -6 0 -25 -9
-41 -13 -27 -15 -145 -13 -1043 2 -557 5 -1020 8 -1028 3 -8 15 -23 27 -33 13
-11 20 -24 17 -35 -5 -14 -4 -14 4 -3 8 12 14 12 25 3 10 -9 407 -12 1625 -12
1799 0 1658 -6 1701 70 21 38 21 39 21 1043 0 1031 0 1036 -37 1075 -41 43 7
42 -1681 42 -1569 0 -1598 0 -1636 -20z"/>
</g>
</svg>
